<?xml version="1.0" encoding="utf-8"?>
<!-- Generator: Adobe Illustrator 22.0.0, SVG Export Plug-In . SVG Version: 6.00 Build 0)  -->
<svg version="1.1" xmlns="http://www.w3.org/2000/svg" xmlns:xlink="http://www.w3.org/1999/xlink" x="0px" y="0px"
	 viewBox="0 0 196 196" style="enable-background:new 0 0 196 196;" xml:space="preserve">
<style type="text/css">
	.st0{display:none;opacity:0.34;}
	.st1{fill:#B2A38E;stroke:#000000;stroke-miterlimit:10;}
	.st2{fill:#EDB7ED;stroke:#000000;stroke-miterlimit:10;}
	.st3{fill:#D6A9D8;stroke:#000000;stroke-miterlimit:10;}
	.st4{fill:#C79DC9;stroke:#000000;stroke-miterlimit:10;}
	.st5{fill:#F7F7F7;}
	.st6{fill:none;stroke:#000000;stroke-miterlimit:10;}
	.st7{fill:#EF89E6;stroke:#000000;stroke-miterlimit:10;}
	.st8{fill:none;stroke:#000000;stroke-linecap:round;stroke-miterlimit:10;}
	.st9{stroke:#000000;stroke-miterlimit:10;}
</style>
<g id="Layer_1" class="st0">
	
		<image style="display:inline;overflow:visible;" width="180" height="155" xlink:href="../moo.png"  transform="matrix(1 0 0 1 12 16)">
	</image>
</g>
<g id="Layer_3">
	<g>
		<path class="st1" d="M54.3,59c0,0-17-24-13-39c3-2,4-1,6,1s17,26,32,25L54.3,59z"/>
		<path class="st1" d="M141.7,59c0,0,17-24,13-39c-3-2-4-1-6,1s-17,26-32,25L141.7,59z"/>
	</g>
</g>
<g id="Layer_2">
	<path class="st2" d="M80.4,166.6c0,0,6.4,10.3,4.1,14.3c-3.6,11.1,9.5,9.6,6.7,3.7s0-14.4,0.5-15.2
		C91.8,169.4,84.1,168.1,80.4,166.6z"/>
	<path class="st3" d="M118.7,165.2c0,0-3.8,6.1-2.5,8.5c2.1,6.6-5.6,5.7-4,2.2s0-8.6-0.3-9.1C111.9,166.9,116.5,166.1,118.7,165.2z"
		/>
	<path class="st4" d="M74.6,162.6c0,0,3.5,9.2,1.1,12c-4.6,8.3,6,9.2,4.7,4c-1.3-5.2,2.2-11.5,2.8-12
		C83.1,166.5,77.2,164.3,74.6,162.6z"/>
	<g id="XMLID_1_">
		<g>
			<circle class="st5" cx="96" cy="106" r="65"/>
		</g>
		<g>
			<circle class="st6" cx="96" cy="106" r="65"/>
		</g>
	</g>
	<ellipse class="st7" cx="98" cy="121.5" rx="18" ry="12.9"/>
	<g>
		<path class="st8" d="M93.5,124c0-3.9-3.1-7-7-7"/>
		<path class="st8" d="M102.5,124c0-3.9,3.1-7,7-7"/>
	</g>
	<g>
		<ellipse class="st6" cx="77.8" cy="79" rx="10" ry="14"/>
		<path class="st9" d="M87.2,83.5c-7.3,0-10.1-4.1-10.1-18C77.1,65.5,89.3,62.5,87.2,83.5z"/>
		<ellipse class="st6" cx="118.2" cy="79.5" rx="10" ry="14"/>
		<path class="st9" d="M108.8,84c7.3,0,10.1-4.1,10.1-18C118.9,66,106.7,63,108.8,84z"/>
	</g>
	<path class="st6" d="M119.6,66"/>
	<path class="st2" d="M129.2,159.7c0,0-3.1,10.8-0.1,13.8c6,9-6,11-5,5s-3.6-12.9-4.3-13.4C119.8,165.1,126.3,162,129.2,159.7z"/>
	<path class="st2" d="M109.4,159.4c0,0-3.2,11.1-0.1,14.2c6.2,9.3-6.2,11.4-5.2,5.2c1-6.2-3.8-13.3-4.5-13.9
		C99.6,164.9,106.3,161.7,109.4,159.4z"/>
	<path class="st6" d="M109.6,85"/>
	<path class="st2" d="M94.1,144c36,0,41.9,13.3,41.9,13.3s-37.3,30.8-79.9,0c0,0,5.9-13.3,41.9-13.3"/>
	<path class="st2" d="M59.4,159.7c0,0,3.1,10.8,0.1,13.8c-6,9,6,11,5,5s3.6-12.9,4.3-13.4C68.8,165.1,62.3,162,59.4,159.7z"/>
</g>
<g id="Layer_4">
	<path d="M71.1,45.9C71.1,45.9,81,68,93,70s12-16,12-16s-1-5,6-6c6,5,14,0,14,0S101.2,33.9,71.1,45.9z"/>
	<path d="M44.5,104.5c5-11,1-19,1-19s-1.7-9.3,7-13c5.5-2.3,7.7,6.3,8,16c0.2,7.1,3.6,12.5,5,13c3,1,3,13,2,14s-1,9-9,8
		S35.5,114.5,44.5,104.5z"/>
	<path d="M152.7,137.8c0,0-11.7-22.8-18.7-24.8s-12,4-17,2c0,0-10-17,8-21c12-6,8-22,8-22s4-11,15,4s7,18.7,12.5,21.8
		C162,105,161,124,152.7,137.8z"/>
	<path d="M115.6,146"/>
	<path d="M40.1,139.2c0,0,11.4-13.7,24.4-10.7s11,17,26,9C108,133,117,142,116,144c0,0,0.5,1.5-1.8,1.7c0,0-40.2-8.7-58.2,11.3
		C56,157,42.2,144.3,40.1,139.2z"/>
	<path d="M144.9,63.2c0,0,26.1-4.2,35.1,11.8s5,46,0,45c-6,0-9-6-9-14s-10-20-14-22.5C157,83.5,149.8,65.3,144.9,63.2z"/>
	<path d="M51.5,58.6C51.5,58.6,17,50,13,77s6,32,6,32s6.4,5,13.2-15.5C38,73,39,72,51.5,58.6z"/>
</g>
</svg>
