<svg width="195" height="209" viewBox="0 0 195 209" fill="none" xmlns="http://www.w3.org/2000/svg">
<rect y="209" width="6" height="6" rx="3" transform="rotate(-90 0 209)" fill="white" fill-opacity="0.15"/>
<rect x="27" y="209" width="6" height="6" rx="3" transform="rotate(-90 27 209)" fill="white" fill-opacity="0.15"/>
<rect x="54" y="209" width="6" height="6" rx="3" transform="rotate(-90 54 209)" fill="white" fill-opacity="0.15"/>
<rect x="81" y="209" width="6" height="6" rx="3" transform="rotate(-90 81 209)" fill="white" fill-opacity="0.15"/>
<rect x="108" y="209" width="6" height="6" rx="3" transform="rotate(-90 108 209)" fill="white" fill-opacity="0.15"/>
<rect x="135" y="209" width="6" height="6" rx="3" transform="rotate(-90 135 209)" fill="white" fill-opacity="0.15"/>
<rect x="162" y="209" width="6" height="6" rx="3" transform="rotate(-90 162 209)" fill="white" fill-opacity="0.15"/>
<rect x="189" y="209" width="6" height="6" rx="3" transform="rotate(-90 189 209)" fill="white" fill-opacity="0.15"/>
<rect x="27" y="180" width="6" height="6" rx="3" transform="rotate(-90 27 180)" fill="white" fill-opacity="0.15"/>
<rect x="54" y="180" width="6" height="6" rx="3" transform="rotate(-90 54 180)" fill="white" fill-opacity="0.15"/>
<rect x="81" y="180" width="6" height="6" rx="3" transform="rotate(-90 81 180)" fill="white" fill-opacity="0.15"/>
<rect x="108" y="180" width="6" height="6" rx="3" transform="rotate(-90 108 180)" fill="white" fill-opacity="0.15"/>
<rect x="135" y="180" width="6" height="6" rx="3" transform="rotate(-90 135 180)" fill="white" fill-opacity="0.15"/>
<rect x="162" y="180" width="6" height="6" rx="3" transform="rotate(-90 162 180)" fill="white" fill-opacity="0.15"/>
<rect x="189" y="180" width="6" height="6" rx="3" transform="rotate(-90 189 180)" fill="white" fill-opacity="0.15"/>
<rect x="54" y="151" width="6" height="6" rx="3" transform="rotate(-90 54 151)" fill="white" fill-opacity="0.15"/>
<rect x="81" y="151" width="6" height="6" rx="3" transform="rotate(-90 81 151)" fill="white" fill-opacity="0.15"/>
<rect x="108" y="151" width="6" height="6" rx="3" transform="rotate(-90 108 151)" fill="white" fill-opacity="0.15"/>
<rect x="135" y="151" width="6" height="6" rx="3" transform="rotate(-90 135 151)" fill="white" fill-opacity="0.15"/>
<rect x="162" y="151" width="6" height="6" rx="3" transform="rotate(-90 162 151)" fill="white" fill-opacity="0.15"/>
<rect x="189" y="151" width="6" height="6" rx="3" transform="rotate(-90 189 151)" fill="white" fill-opacity="0.15"/>
<rect x="81" y="122" width="6" height="6" rx="3" transform="rotate(-90 81 122)" fill="white" fill-opacity="0.15"/>
<rect x="108" y="122" width="6" height="6" rx="3" transform="rotate(-90 108 122)" fill="white" fill-opacity="0.15"/>
<rect x="135" y="122" width="6" height="6" rx="3" transform="rotate(-90 135 122)" fill="white" fill-opacity="0.15"/>
<rect x="162" y="122" width="6" height="6" rx="3" transform="rotate(-90 162 122)" fill="white" fill-opacity="0.15"/>
<rect x="189" y="122" width="6" height="6" rx="3" transform="rotate(-90 189 122)" fill="white" fill-opacity="0.15"/>
<rect x="108" y="93" width="6" height="6" rx="3" transform="rotate(-90 108 93)" fill="white" fill-opacity="0.15"/>
<rect x="135" y="93" width="6" height="6" rx="3" transform="rotate(-90 135 93)" fill="white" fill-opacity="0.15"/>
<rect x="162" y="93" width="6" height="6" rx="3" transform="rotate(-90 162 93)" fill="white" fill-opacity="0.15"/>
<rect x="189" y="93" width="6" height="6" rx="3" transform="rotate(-90 189 93)" fill="white" fill-opacity="0.15"/>
<rect x="135" y="64" width="6" height="6" rx="3" transform="rotate(-90 135 64)" fill="white" fill-opacity="0.15"/>
<rect x="162" y="64" width="6" height="6" rx="3" transform="rotate(-90 162 64)" fill="white" fill-opacity="0.15"/>
<rect x="189" y="64" width="6" height="6" rx="3" transform="rotate(-90 189 64)" fill="white" fill-opacity="0.15"/>
<rect x="162" y="35" width="6" height="6" rx="3" transform="rotate(-90 162 35)" fill="white" fill-opacity="0.15"/>
<rect x="189" y="35" width="6" height="6" rx="3" transform="rotate(-90 189 35)" fill="white" fill-opacity="0.15"/>
<rect x="189" y="6" width="6" height="6" rx="3" transform="rotate(-90 189 6)" fill="white" fill-opacity="0.15"/>
</svg>
